#!OML:ASF X:\für Bonn\!DataBase\2005_08_10_Bjorn_Final\c3d\bjorn.ASF
:FULLY-SPECIFIED
:DEGREES
199
root -12.4343 17.967 10.6734 173.627 58.6559 -537.735
lowerback 1.70659 -2.66106 2.68712
upperback 17.4552 -2.12002 0.409393
thorax 18.7866 0.103855 -1.05645
lowerneck 11.0859 0.843378 7.94025
upperneck -7.45651 1.74614 -6.09583
head -3.90462 0.972663 -3.27751
rclavicle 4.25399e-014 -2.18663e-014
rhumerus -19.3816 -15.0121 -85.2993
rradius 80.3445
rwrist 1.60402
rhand -27.0772 19.9713
rfingers 7.12502
rthumb -0.49469 -10.0078
lclavicle 4.25399e-014 -2.18663e-014
lhumerus -5.27333 -8.83279 88.8879
lradius 66.0217
lwrist -19.6161
lhand -49.2537 -18.1907
lfingers 7.12502
lthumb -21.8726 10.593
rfemur -36.937 -15.858 11.4937
rtibia 40.8702
rfoot 20.9244 11.9105
rtoes -29.9231
lfemur 8.81951 15.3575 -13.6528
ltibia 39.1854
lfoot -25.2124 9.62197
ltoes 9.90103
200
root -12.3476 17.9473 10.6416 173.578 58.5586 -538.031
lowerback 1.58354 -2.70636 2.82076
upperback 17.4059 -2.20865 0.388466
thorax 18.7917 0.0805453 -1.17097
lowerneck 11.2367 0.852808 7.88316
upperneck -7.59958 1.75639 -6.10972
head -3.97254 0.980956 -3.27705
rclavicle 8.8658e-014 -4.25399e-014
rhumerus -19.324 -15.0482 -85.2909
rradius 80.2255
rwrist 1.5993
rhand -27.2107 19.9483
rfingers 7.12502
rthumb -0.623633 -10.0305
lclavicle 8.8658e-014 -4.25399e-014
lhumerus -5.26915 -8.75757 88.9391
lradius 65.9149
lwrist -19.714
lhand -49.2997 -17.9874
lfingers 7.12502
lthumb -21.9169 10.7912
rfemur -36.537 -15.4821 11.1306
rtibia 40.1244
rfoot 21.0315 11.7746
rtoes -29.4084
lfemur 8.95707 15.196 -13.7646
ltibia 39.1373
lfoot -25.2541 9.60161
ltoes 10.0016
201
root -12.259 17.9298 10.6111 173.503 58.4093 -538.392
lowerback 1.45689 -2.76172 2.91254
upperback 17.3421 -2.30989 0.362696
thorax 18.7795 0.043813 -1.27058
lowerneck 11.3732 0.866345 7.81405
upperneck -7.73079 1.77001 -6.11615
head -4.0345 0.990828 -3.27222
rclavicle 1.15394e-013 -5.78463e-014
rhumerus -19.2695 -15.099 -85.294
rradius 80.0685
rwrist 1.66781
rhand -27.3844 19.9504
rfingers 7.12502
rthumb -0.791357 -10.0279
lclavicle 1.15394e-013 -5.78463e-014
lhumerus -5.26324 -8.69288 89.0073
lradius 65.7931
lwrist -19.7911
lhand -49.3597 -17.7731
lfingers 7.12502
lthumb -21.9745 10.9987
rfemur -36.1752 -15.1497 10.7333
rtibia 39.4841
rfoot 21.1041 11.6888
rtoes -28.5192
lfemur 9.05913 14.9834 -13.9286
ltibia 39.0619
lfoot -25.2632 9.59515
ltoes 9.995
202
root -12.1678 17.9135 10.5827 173.468 58.2671 -538.684
lowerback 1.35419 -2.82416 3.03769
upperback 17.3052 -2.41678 0.335925
thorax 18.7863 0.0128651 -1.38912
lowerneck 11.463 0.897992 7.70188
upperneck -7.88398 1.80156 -6.07753
head -4.0951 1.00759 -3.24721
rclavicle -2.0276e-014 1.15295e-014
rhumerus -19.1851 -15.1402 -85.3279
rradius 79.94
rwrist 1.73676
rhand -27.5327 19.9185
rfingers 7.12502
rthumb -0.934588 -10.0592
lclavicle -2.0276e-014 1.15295e-014
lhumerus -5.21692 -8.61745 89.0244
lradius 65.6725
lwrist -19.8946
lhand -49.4579 -17.4868
lfingers 7.12502
lthumb -22.0687 11.2739
rfemur -35.8087 -14.7551 10.3645
rtibia 38.9512
rfoot 21.0086 11.7295
rtoes -27.4678
lfemur 9.20312 14.7483 -14.0406
ltibia 38.9632
lfoot -25.2322 9.61229
ltoes 10.0571
203
root -12.0756 17.9003 10.5541 173.437 58.1283 -538.973
lowerback 1.27947 -2.89217 3.15612
upperback 17.2571 -2.53342 0.327117
thorax 18.7586 -0.027366 -1.48421
lowerneck 11.584 0.92888 7.58395
upperneck -8.04005 1.82703 -6.09904
head -4.16168 1.02554 -3.24018
rclavicle 5.725e-014 -3.53837e-014
rhumerus -19.0822 -15.1542 -85.3262
rradius 79.7458
rwrist 1.82616
rhand -27.7569 19.9871
rfingers 7.12502
rthumb -1.15109 -9.98954
lclavicle 5.725e-014 -3.53837e-014
lhumerus -5.19681 -8.48766 89.0938
lradius 65.5338
lwrist -20.0095
lhand -49.5271 -17.286
lfingers 7.12502
lthumb -22.1351 11.4668
rfemur -35.4693 -14.3698 10.0104
rtibia 38.5283
rfoot 20.7839 11.9609
rtoes -26.3625
lfemur 9.35238 14.492 -14.1535
ltibia 38.8286
lfoot -25.221 9.5798
ltoes 10.2259
